<svg width="420" height="420" viewBox="0 0 420 420" fill="none" xmlns="http://www.w3.org/2000/svg">
<g filter="url(#filter0_d_1_848)">
<path fill-rule="evenodd" clip-rule="evenodd" d="M140.526 30H279.474C340.516 30 390 79.4842 390 140.526V279.474C390 340.516 340.516 390 279.474 390H140.526C79.4842 390 30 340.516 30 279.474V140.526C30 79.4842 79.4842 30 140.526 30Z" fill="black"/>
</g>
<mask id="mask0_1_848" style="mask-type:alpha" maskUnits="userSpaceOnUse" x="30" y="30" width="360" height="360">
<path fill-rule="evenodd" clip-rule="evenodd" d="M140.526 30H279.474C340.516 30 390 79.4842 390 140.526V279.474C390 340.516 340.516 390 279.474 390H140.526C79.4842 390 30 340.516 30 279.474V140.526C30 79.4842 79.4842 30 140.526 30Z" fill="white"/>
</mask>
<g mask="url(#mask0_1_848)">
<path d="M301.966 197.931C301.622 194.483 300.933 190.69 299.899 186.552C298.865 182.414 297.142 177.586 294.73 172.759C292.318 167.931 289.217 162.759 285.082 157.931C283.36 155.862 281.637 154.138 279.914 152.414C282.67 141.379 276.468 131.724 276.468 131.724C265.787 131.034 258.895 135.172 256.483 136.897C256.139 136.552 255.794 136.552 255.105 136.207C253.382 135.517 251.659 134.828 249.592 134.138C247.524 133.448 245.801 133.103 243.734 132.414C241.667 132.069 239.599 131.379 237.532 131.379C237.187 131.379 236.843 131.379 236.498 131.379C232.019 116.207 218.581 110 218.581 110C203.764 119.655 200.663 132.759 200.663 132.759C200.663 132.759 200.663 133.103 200.663 133.448C199.974 133.793 198.94 133.793 198.251 134.138C197.217 134.483 195.839 134.828 194.805 135.172C193.772 135.517 192.393 136.207 191.36 136.552C188.948 137.586 186.88 138.621 184.813 140C182.745 141.034 180.678 142.414 178.61 143.793C178.266 143.793 177.921 143.448 177.921 143.448C157.247 135.517 138.64 145.172 138.64 145.172C136.918 167.241 146.91 181.034 148.978 183.793C148.633 185.172 147.944 186.552 147.599 187.931C146.221 192.759 144.843 197.931 144.154 203.448C144.154 204.138 143.809 204.828 143.809 205.862C124.513 215.172 119 234.828 119 234.828C134.85 253.103 153.457 254.483 153.457 254.483C155.869 258.621 158.625 262.759 161.727 266.552C163.105 268.276 164.483 269.655 165.861 271.034C160.004 287.586 166.551 301.724 166.551 301.724C184.468 302.414 196.184 293.793 198.596 292.069C200.318 292.759 202.041 293.103 204.109 293.793C209.622 295.172 215.135 295.862 220.648 296.207C222.026 296.207 223.404 296.207 224.783 296.207H225.472H225.816H226.85H227.884C236.154 308.276 250.97 310 250.97 310C262.685 297.586 261.996 285.172 261.996 285.172L261.652 284.828C264.064 283.103 266.131 281.379 268.199 279.655C272.333 275.862 276.124 271.379 279.225 266.897C279.569 266.552 279.914 265.862 279.914 265.517C291.629 266.207 300.243 258.276 300.243 258.276C298.176 244.483 289.562 238.621 289.562 238.621H289.217C289.217 237.931 289.217 236.897 289.562 236.207C289.562 234.828 289.562 233.448 289.562 232.069V231.034V230.69V230.345C289.562 230 289.562 230 289.562 230V229.31V228.276C289.562 227.931 289.562 227.586 289.562 227.241C289.562 226.897 289.562 226.552 289.562 226.207V225.172V224.138C289.217 222.759 289.217 221.379 288.873 220C287.494 214.828 285.427 209.655 282.67 205.172C279.914 200.69 276.468 196.552 272.678 193.103C268.888 189.655 264.408 186.897 259.929 184.828C255.449 182.759 250.625 181.379 245.801 181.034C243.39 180.69 240.978 180.69 238.91 180.69H237.876H237.532H237.187H236.843H235.809C235.464 180.69 235.12 180.69 234.775 180.69C233.742 180.69 232.363 181.034 231.33 181.034C226.506 182.069 222.026 183.448 218.236 185.862C214.446 188.276 211 191.034 208.243 194.483C205.487 197.931 203.419 201.379 201.697 205.172C200.318 208.966 199.285 212.759 199.285 216.552C199.285 217.586 199.285 218.621 199.285 219.31C199.285 219.655 199.285 219.655 199.285 220V220.69C199.285 221.034 199.285 221.724 199.285 222.069C199.629 224.138 199.974 225.862 200.318 227.586C201.352 231.034 203.075 234.483 205.142 237.241C207.21 240 209.622 242.414 212.378 244.138C215.135 245.862 217.891 247.241 220.648 247.931C223.404 248.621 226.161 248.966 228.573 248.966C228.918 248.966 229.262 248.966 229.607 248.966H229.951H230.296C230.64 248.966 230.985 248.966 230.985 248.966C230.985 248.966 230.985 248.966 231.33 248.966H231.674H232.019C232.363 248.966 232.708 248.966 233.052 248.966C233.397 248.966 233.742 248.966 234.086 248.621C234.775 248.621 235.12 248.276 235.809 248.276C236.843 247.931 237.876 247.586 238.91 246.897C239.944 246.552 240.633 245.862 241.667 245.172C242.011 244.828 242.011 244.828 242.356 244.483C243.39 243.793 243.39 242.414 242.7 241.724C242.011 241.034 240.978 240.69 240.288 241.379C239.599 240.69 239.599 241.034 239.255 241.034C238.566 241.379 237.876 241.724 236.843 242.069C236.154 242.414 235.12 242.414 234.086 242.759C233.742 242.759 233.052 242.759 232.708 242.759C232.363 242.759 232.363 242.759 232.019 242.759C231.674 242.759 231.674 242.759 231.33 242.759C230.985 242.759 230.985 242.759 230.64 242.759C230.296 242.759 229.951 242.759 229.951 242.759H229.607H229.262C228.918 242.759 228.918 242.759 228.573 242.759C226.506 242.414 224.438 241.724 222.715 241.034C220.648 240 218.925 238.966 217.202 237.241C215.479 235.862 214.101 233.793 212.723 231.724C211.689 229.655 210.655 227.241 210.311 224.828C209.966 223.793 209.966 222.414 209.966 221.034C209.966 220.69 209.966 220.345 209.966 220V219.655V219.31C209.966 218.621 209.966 217.931 210.311 217.241C211.345 212.069 213.757 206.897 217.891 202.759C218.925 201.724 219.959 201.034 221.337 200C222.371 199.31 223.749 198.621 225.127 197.931C226.506 197.241 227.884 196.897 229.262 196.552C230.64 196.207 232.019 195.862 233.397 195.862C234.086 195.862 234.775 195.862 235.464 195.862C235.809 195.862 235.809 195.862 235.809 195.862H236.498H236.843H237.532C239.255 195.862 240.633 196.207 242.356 196.552C245.457 197.241 248.558 198.276 251.315 200C256.828 203.103 261.652 207.931 264.753 213.793C266.131 216.552 267.165 220 267.854 223.103C267.854 223.793 268.199 224.828 268.199 225.517V226.207V226.897C268.199 227.241 268.199 227.241 268.199 227.586C268.199 227.931 268.199 227.931 268.199 228.276V228.966V229.655C268.199 230 268.199 230.69 268.199 231.034C268.199 232.069 268.199 232.759 267.854 233.793C267.854 234.828 267.509 235.517 267.509 236.552C267.165 236.897 267.165 237.586 266.82 238.621C266.476 240.345 265.787 242.069 265.097 243.793C263.719 247.241 261.996 250.345 259.929 253.103C255.794 258.966 249.936 263.793 243.39 266.552C239.944 267.931 236.498 268.966 233.052 269.655C231.33 270 229.607 270 227.539 270.345H227.195H226.85H226.161H225.127H224.783C225.127 270.345 224.783 270.345 224.783 270.345H224.438C223.404 270.345 222.371 270.345 221.682 270.345C217.891 270 214.101 269.31 210.311 268.276C206.521 267.241 203.075 265.862 199.629 264.138C192.738 260.69 186.88 255.517 182.056 249.655C179.644 246.552 177.577 243.448 175.854 240C174.131 236.552 172.753 233.103 171.719 229.655C170.685 226.207 169.996 222.414 169.996 218.621V217.931V217.586V217.241V216.552V216.207V215.862V214.828V214.483C169.996 214.138 169.996 213.448 169.996 213.103C169.996 211.379 170.341 209.31 170.341 207.586C170.685 205.862 171.03 203.793 171.375 202.069C171.719 200.345 172.064 198.276 172.753 196.552C173.787 192.759 175.165 189.31 176.543 185.862C179.644 178.966 183.779 173.103 188.603 168.276C189.981 167.241 191.015 165.862 192.393 164.828C193.772 163.793 195.15 162.759 196.528 161.724C197.906 160.69 199.285 160 201.007 159.31C201.697 158.966 202.386 158.621 203.419 158.276C203.764 158.276 204.109 157.931 204.453 157.931C204.798 157.586 205.142 157.586 205.487 157.586C206.865 156.897 208.588 156.207 210.311 155.862C210.655 155.862 211 155.517 211.689 155.517C212.034 155.517 212.378 155.172 213.067 155.172C213.757 154.828 214.79 154.828 215.479 154.483C215.824 154.483 216.169 154.138 216.858 154.138C217.202 154.138 217.547 153.793 218.236 153.793C218.581 153.793 218.925 153.793 219.614 153.448H220.303H220.993C221.337 153.448 221.682 153.448 222.371 153.103C222.715 153.103 223.404 153.103 223.749 152.759C224.094 152.759 224.783 152.759 225.127 152.759C225.472 152.759 225.816 152.759 226.161 152.759H226.85H227.195H227.539C227.884 152.759 228.573 152.759 228.918 152.759H229.607C229.607 152.759 229.951 152.759 229.607 152.759H229.951C230.296 152.759 230.64 152.759 231.33 152.759C233.052 152.759 234.431 152.759 236.154 152.759C239.255 152.759 242.356 153.103 245.457 153.793C251.659 154.828 257.172 156.897 262.341 159.31C267.509 161.724 272.333 164.828 276.124 168.276C276.468 168.621 276.468 168.621 276.813 168.966C277.157 169.31 277.157 169.31 277.502 169.655C277.846 170 278.536 170.69 278.88 171.034C279.225 171.379 279.914 172.069 280.258 172.414C280.603 172.759 281.292 173.448 281.637 173.793C283.36 175.517 285.082 177.586 286.461 179.31C289.217 183.103 291.629 186.552 293.352 190.345C293.352 190.69 293.697 190.69 293.697 191.034C293.697 191.379 294.041 191.379 294.041 191.724C294.386 192.069 294.386 192.759 294.73 193.103C295.075 193.448 295.075 193.793 295.419 194.483C295.764 194.828 295.764 195.172 296.109 195.862C296.798 197.586 297.487 198.966 297.831 200.69C298.521 203.103 299.21 205.172 299.899 207.241C300.243 207.931 300.933 208.621 301.622 208.276C302.311 208.276 303 207.586 303 206.897C302.311 203.103 302.311 200.69 301.966 197.931Z" fill="url(#paint0_linear_1_848)"/>
</g>
<defs>
<filter id="filter0_d_1_848" x="0" y="0" width="420" height="420" filterUnits="userSpaceOnUse" color-interpolation-filters="sRGB">
<feFlood flood-opacity="0" result="BackgroundImageFix"/>
<feColorMatrix in="SourceAlpha" type="matrix" values="0 0 0 0 0 0 0 0 0 0 0 0 0 0 0 0 0 0 127 0" result="hardAlpha"/>
<feOffset/>
<feGaussianBlur stdDeviation="15"/>
<feColorMatrix type="matrix" values="0 0 0 0 0 0 0 0 0 0 0 0 0 0 0 0 0 0 0.0720881 0"/>
<feBlend mode="normal" in2="BackgroundImageFix" result="effect1_dropShadow_1_848"/>
<feBlend mode="normal" in="SourceGraphic" in2="effect1_dropShadow_1_848" result="shape"/>
</filter>
<linearGradient id="paint0_linear_1_848" x1="294.768" y1="350.863" x2="294.768" y2="168.048" gradientUnits="userSpaceOnUse">
<stop stop-color="#FFF100"/>
<stop offset="1" stop-color="#F05A28"/>
</linearGradient>
</defs>
</svg>
